# xmcd
#
# Track frame offsets:
#	182
#	19587
#	40292
#
# Disc length: 816 seconds
# Revision: 2
# Processed by: cddbd v1.5.2PL0 Copyright (c) Steve Scherf et al.
# Submitted via: dBpowerAMP V12.0
#
DISCID=1a032e03
DTITLE=Jann Arden / Insensitive  [EP]
DYEAR=1996
DGENRE=Pop/Rock
TTITLE0=Insensitive
TTITLE1=I Would Die For You
TTITLE2=Gasoline
EXTD=
EXTT0=
EXTT1=
EXTT2=
PLAYORDER=
